<svg version="1.1" id="Layer_1" xmlns="http://www.w3.org/2000/svg" xmlns:xlink="http://www.w3.org/1999/xlink" x="0px" y="0px"
	 width="100%" viewBox="0 0 201 79" enable-background="new 0 0 201 79" xml:space="preserve">
<path fill="#FFFFFF" opacity="1.000000" stroke="none" 
	d="
M202.000000,57.000000 
	C202.000000,64.653847 202.000000,72.307693 202.000000,79.937691 
	C134.999969,79.937691 67.999962,79.937691 1.000000,79.937691 
	C1.000000,67.562691 1.000000,55.250004 1.442020,42.471508 
	C2.589354,43.130573 3.847498,44.228718 3.903396,45.384987 
	C4.133991,50.154995 3.999983,54.942623 3.999983,59.712379 
	C6.597271,59.712379 8.660480,59.712379 11.135463,59.712379 
	C11.135463,53.672550 11.135463,47.913071 11.135463,42.220680 
	C12.993704,42.009388 14.425705,41.846561 16.060749,41.660648 
	C15.944972,39.948494 15.848172,38.516994 15.757123,37.170544 
	C14.008044,37.008556 12.586428,36.876896 11.085742,36.737911 
	C10.898955,32.857494 19.025007,33.413464 15.253697,28.104300 
	C14.785575,28.072020 14.293188,28.013918 13.800145,28.007677 
	C6.018865,27.909191 5.924305,28.051928 3.874486,35.495434 
	C3.678569,36.206863 1.993660,36.508251 1.000000,37.000000 
	C1.000000,25.018976 1.000000,13.037952 1.000009,1.059571 
	C68.000023,1.062212 135.000031,1.062212 202.000000,1.062212 
	C202.000000,14.103844 202.000000,27.083263 201.648010,40.424332 
	C199.561264,36.576557 195.687057,36.198174 192.138809,36.485359 
	C188.237488,36.801117 184.867828,39.163445 185.147903,43.490253 
	C185.402374,47.421444 188.468536,49.333160 192.386383,50.205219 
	C194.516159,50.679279 196.384140,52.329617 198.498428,53.521702 
	C195.532593,57.789314 193.153946,58.132561 190.138916,54.640896 
	C189.140503,53.484623 186.998917,53.315453 184.912460,52.515778 
	C185.198883,57.316784 187.187134,59.248463 190.599136,60.004303 
	C194.934464,60.964672 198.923904,60.752308 202.000000,57.000000 
M109.989967,22.822298 
	C110.562019,27.559547 112.617462,30.874506 117.676498,31.709423 
	C115.176598,34.524593 112.676697,37.339764 110.062202,40.920212 
	C111.352226,41.649788 112.642258,42.379368 113.662529,43.819798 
	C113.028511,46.176464 111.404877,48.962025 115.765175,49.706722 
	C114.841621,51.114605 113.918076,52.522488 112.498047,54.271252 
	C115.454430,59.330772 120.489868,60.986061 125.670502,60.766949 
	C128.723480,60.637825 132.046600,58.608532 134.466843,56.525806 
	C135.260742,55.842632 133.597031,52.303585 133.808945,50.011856 
	C135.553650,50.041061 137.298355,50.070267 139.736832,49.646931 
	C140.583893,39.582947 137.346817,36.069237 127.153610,35.988960 
	C126.170082,35.981213 125.186546,35.975891 123.967255,35.452682 
	C123.659531,35.250885 123.351814,35.049091 123.526634,34.172863 
	C127.546593,34.172863 131.566559,34.172863 135.586517,34.172863 
	C135.745956,33.893127 135.905396,33.613388 136.064835,33.333652 
	C131.688599,31.891747 127.312363,30.449841 124.007980,29.361095 
	C124.676132,28.102077 125.760551,26.058668 126.654190,23.290047 
	C124.114609,24.153316 121.575020,25.016586 118.978317,25.168056 
	C117.611473,22.212505 115.435066,20.558559 111.723259,20.267622 
	C110.870865,20.370110 110.018471,20.472597 109.166077,20.575089 
	C109.418678,21.066601 109.671272,21.558113 109.989967,22.822298 
M66.386932,36.132706 
	C66.605110,34.480312 66.823288,32.827923 67.076454,30.910540 
	C64.793228,31.015999 63.220753,31.088627 61.965183,31.146620 
	C61.965183,33.241337 61.965183,35.039387 61.107422,37.014915 
	C60.580345,44.562744 60.053268,52.110569 59.522453,59.711967 
	C62.940868,59.711967 65.337975,59.711967 67.998795,59.711967 
	C67.998795,52.786312 68.073151,46.143326 67.911606,39.506073 
	C67.889587,38.601711 66.689003,37.726040 66.386932,36.132706 
M53.639973,59.998173 
	C54.421562,59.441093 55.870659,58.898685 55.883278,58.324707 
	C56.038879,51.246075 55.984749,44.162830 55.984749,37.204330 
	C53.321472,37.204330 51.373566,37.204330 49.000347,37.204330 
	C49.000347,40.517696 48.968761,43.643673 49.008781,46.768738 
	C49.053303,50.245125 49.343849,54.754517 44.848316,54.711975 
	C40.068695,54.666744 41.099327,49.912651 41.016533,46.606327 
	C40.938564,43.492722 40.999813,40.375629 40.999813,37.291775 
	C38.394642,37.291775 36.332058,37.291775 34.001194,37.291775 
	C34.001194,42.883278 33.800358,48.198650 34.073063,53.489616 
	C34.249599,56.914707 35.614319,59.349594 39.780571,60.197735 
	C44.253590,61.108322 48.442013,57.647907 53.639973,59.998173 
M109.744194,44.207878 
	C107.152672,37.052254 103.365555,35.500145 93.202263,37.428345 
	C92.703850,28.964586 92.703850,28.964586 88.268257,29.596643 
	C88.268257,39.694923 88.268257,49.782085 88.268257,59.296604 
	C91.833748,59.813801 95.053650,60.253311 98.264023,60.753838 
	C101.916931,61.323360 107.237381,58.665138 108.353111,55.036572 
	C109.337959,51.833664 109.473282,48.369537 109.744194,44.207878 
M182.026306,51.999226 
	C180.345200,52.634201 178.644958,53.223431 176.987885,53.915913 
	C174.989319,54.751095 172.646042,56.793217 171.144073,56.281490 
	C169.172440,55.609756 167.876297,52.955357 166.289658,51.153633 
	C166.665176,50.738102 167.040680,50.322567 167.416199,49.907036 
	C172.519073,49.907036 177.621948,49.907036 182.641403,49.907036 
	C184.277908,42.449142 179.732834,37.425217 174.145645,36.048779 
	C169.469559,34.896790 163.637573,39.708191 162.161728,45.595783 
	C160.745590,51.245171 163.972656,58.788612 168.367615,59.992657 
	C175.830643,62.037231 180.999588,59.121918 182.026306,51.999226 
M82.663651,54.992916 
	C77.364754,51.694229 81.270538,46.651859 79.744629,42.373280 
	C81.807968,42.078011 83.352310,41.857014 84.835442,41.644772 
	C84.835442,40.058727 84.835442,38.769203 84.835442,37.146259 
	C83.280777,37.054089 81.861732,36.969959 80.329956,36.879147 
	C80.057533,35.139679 79.816345,33.599648 79.597595,32.202869 
	C77.296837,32.202869 75.342010,32.202869 74.718353,32.202869 
	C72.829521,34.468285 71.149422,35.771858 70.528961,37.463982 
	C70.073914,38.704979 70.883789,40.496777 71.367088,41.965027 
	C71.702835,42.985008 72.820267,43.833027 72.923607,44.826996 
	C73.163361,47.133129 73.000229,49.481155 73.000336,51.812199 
	C73.000710,60.053616 73.000771,60.062069 81.422752,59.989601 
	C82.546814,59.979927 83.669708,59.833492 85.756462,59.679131 
	C84.857925,57.782444 84.201225,56.396255 82.663651,54.992916 
M145.175781,37.005890 
	C143.569382,37.005890 141.962967,37.005890 140.434280,37.005890 
	C143.327164,40.949333 146.104935,44.735882 148.727463,48.310799 
	C146.011292,52.087654 143.405762,55.710678 140.685272,59.493530 
	C147.897949,61.871830 148.268768,54.797478 151.587296,52.042149 
	C154.646072,55.357235 154.732224,62.033279 162.029022,59.578884 
	C159.464157,55.800404 156.945938,52.090637 154.409622,48.354214 
	C156.789261,44.867538 159.327972,41.147808 161.930878,37.334011 
	C154.649124,35.231541 154.556503,41.924931 151.552185,44.423866 
	C149.784485,42.070599 147.889725,39.548168 145.175781,37.005890 
M32.399643,42.901031 
	C32.879002,40.189819 34.466305,35.384640 30.204485,36.482342 
	C26.088003,37.542614 22.264187,36.132061 18.345535,37.223537 
	C18.345535,44.823704 18.345535,52.361820 18.345535,59.809769 
	C20.649466,59.809769 22.603704,59.809769 25.000128,59.809769 
	C25.000128,56.349792 24.809061,53.048923 25.049488,49.779793 
	C25.336712,45.874367 26.684519,42.663364 32.399643,42.901031 
z"/>
<path fill="#29682E" opacity="1.000000" stroke="none" 
	d="
M1.000000,37.416664 
	C1.993660,36.508251 3.678569,36.206863 3.874486,35.495434 
	C5.924305,28.051928 6.018865,27.909191 13.800145,28.007677 
	C14.293188,28.013918 14.785575,28.072020 15.253697,28.104300 
	C19.025007,33.413464 10.898955,32.857494 11.085742,36.737911 
	C12.586428,36.876896 14.008044,37.008556 15.757123,37.170544 
	C15.848172,38.516994 15.944972,39.948494 16.060749,41.660648 
	C14.425705,41.846561 12.993704,42.009388 11.135463,42.220680 
	C11.135463,47.913071 11.135463,53.672550 11.135463,59.712379 
	C8.660480,59.712379 6.597271,59.712379 3.999983,59.712379 
	C3.999983,54.942623 4.133991,50.154995 3.903396,45.384987 
	C3.847498,44.228718 2.589354,43.130573 1.442020,42.002850 
	C1.000000,40.611111 1.000000,39.222221 1.000000,37.416664 
z"/>
<path fill="#1A1916" opacity="1.000000" stroke="none" 
	d="
M202.000000,56.562500 
	C198.923904,60.752308 194.934464,60.964672 190.599136,60.004303 
	C187.187134,59.248463 185.198883,57.316784 184.912460,52.515778 
	C186.998917,53.315453 189.140503,53.484623 190.138916,54.640896 
	C193.153946,58.132561 195.532593,57.789314 198.498428,53.521702 
	C196.384140,52.329617 194.516159,50.679279 192.386383,50.205219 
	C188.468536,49.333160 185.402374,47.421444 185.147903,43.490253 
	C184.867828,39.163445 188.237488,36.801117 192.138809,36.485359 
	C195.687057,36.198174 199.561264,36.576557 201.648010,40.892990 
	C202.000000,41.750000 202.000000,42.500000 201.587479,43.624001 
	C199.767456,43.591263 197.730759,43.635056 197.061157,42.699932 
	C194.131165,38.608032 192.050232,39.582184 189.551376,43.705425 
	C193.871384,45.889812 197.935699,47.944908 202.000000,50.000000 
	C202.000000,52.041668 202.000000,54.083332 202.000000,56.562500 
z"/>
<path fill="#FFFFFF" opacity="1.000000" stroke="none" 
	d="
M202.000000,49.571537 
	C197.935699,47.944908 193.871384,45.889812 189.551376,43.705425 
	C192.050232,39.582184 194.131165,38.608032 197.061157,42.699932 
	C197.730759,43.635056 199.767456,43.591263 201.587479,43.999001 
	C202.000000,45.714359 202.000000,47.428715 202.000000,49.571537 
z"/>
<path fill="#29682E" opacity="1.000000" stroke="none" 
	d="
M53.201477,59.998978 
	C48.442013,57.647907 44.253590,61.108322 39.780571,60.197735 
	C35.614319,59.349594 34.249599,56.914707 34.073063,53.489616 
	C33.800358,48.198650 34.001194,42.883278 34.001194,37.291775 
	C36.332058,37.291775 38.394642,37.291775 40.999813,37.291775 
	C40.999813,40.375629 40.938564,43.492722 41.016533,46.606327 
	C41.099327,49.912651 40.068695,54.666744 44.848316,54.711975 
	C49.343849,54.754517 49.053303,50.245125 49.008781,46.768738 
	C48.968761,43.643673 49.000347,40.517696 49.000347,37.204330 
	C51.373566,37.204330 53.321472,37.204330 55.984749,37.204330 
	C55.984749,44.162830 56.038879,51.246075 55.883278,58.324707 
	C55.870659,58.898685 54.421562,59.441093 53.201477,59.998978 
z"/>
<path fill="#1B1A16" opacity="1.000000" stroke="none" 
	d="
M109.863953,44.614319 
	C109.473282,48.369537 109.337959,51.833664 108.353111,55.036572 
	C107.237381,58.665138 101.916931,61.323360 98.264023,60.753838 
	C95.053650,60.253311 91.833748,59.813801 88.268257,59.296604 
	C88.268257,49.782085 88.268257,39.694923 88.268257,29.596643 
	C92.703850,28.964586 92.703850,28.964586 93.202263,37.428345 
	C103.365555,35.500145 107.152672,37.052254 109.863953,44.614319 
M105.000847,46.849785 
	C102.666840,40.357754 99.880112,38.578362 95.873734,41.021896 
	C92.499657,43.079781 91.475975,52.720879 94.666527,55.001221 
	C96.089691,56.018379 98.524368,56.580341 100.171570,56.134789 
	C104.277718,55.024136 105.237793,51.567123 105.000847,46.849785 
z"/>
<path fill="#1A1916" opacity="1.000000" stroke="none" 
	d="
M182.399902,52.130638 
	C180.999588,59.121918 175.830643,62.037231 168.367615,59.992657 
	C163.972656,58.788612 160.745590,51.245171 162.161728,45.595783 
	C163.637573,39.708191 169.469559,34.896790 174.145645,36.048779 
	C179.732834,37.425217 184.277908,42.449142 182.641403,49.907036 
	C177.621948,49.907036 172.519073,49.907036 167.416199,49.907036 
	C167.040680,50.322567 166.665176,50.738102 166.289658,51.153633 
	C167.876297,52.955357 169.172440,55.609756 171.144073,56.281490 
	C172.646042,56.793217 174.989319,54.751095 176.987885,53.915913 
	C178.644958,53.223431 180.345200,52.634201 182.399902,52.130638 
M172.571060,46.001049 
	C174.311859,46.001049 176.052658,46.001049 177.793457,46.001049 
	C178.050217,45.543545 178.306976,45.086044 178.563736,44.628540 
	C176.661789,43.085831 174.664062,40.215366 172.882629,40.343845 
	C170.760162,40.496925 168.823196,43.222260 166.805862,44.833179 
	C167.124985,45.222469 167.444092,45.611763 167.763199,46.001053 
	C169.077560,46.001053 170.391907,46.001053 172.571060,46.001049 
z"/>
<path fill="#29682E" opacity="1.000000" stroke="none" 
	d="
M83.104095,55.001492 
	C84.201225,56.396255 84.857925,57.782444 85.756462,59.679131 
	C83.669708,59.833492 82.546814,59.979927 81.422752,59.989601 
	C73.000771,60.062069 73.000710,60.053616 73.000336,51.812199 
	C73.000229,49.481155 73.163361,47.133129 72.923607,44.826996 
	C72.820267,43.833027 71.702835,42.985008 71.367088,41.965027 
	C70.883789,40.496777 70.073914,38.704979 70.528961,37.463982 
	C71.149422,35.771858 72.829521,34.468285 74.718353,32.202869 
	C75.342010,32.202869 77.296837,32.202869 79.597595,32.202869 
	C79.816345,33.599648 80.057533,35.139679 80.329956,36.879147 
	C81.861732,36.969959 83.280777,37.054089 84.835442,37.146259 
	C84.835442,38.769203 84.835442,40.058727 84.835442,41.644772 
	C83.352310,41.857014 81.807968,42.078011 79.744629,42.373280 
	C81.270538,46.651859 77.364754,51.694229 83.104095,55.001492 
z"/>
<path fill="#1A1915" opacity="1.000000" stroke="none" 
	d="
M145.585373,37.015816 
	C147.889725,39.548168 149.784485,42.070599 151.552185,44.423866 
	C154.556503,41.924931 154.649124,35.231541 161.930878,37.334011 
	C159.327972,41.147808 156.789261,44.867538 154.409622,48.354214 
	C156.945938,52.090637 159.464157,55.800404 162.029022,59.578884 
	C154.732224,62.033279 154.646072,55.357235 151.587296,52.042149 
	C148.268768,54.797478 147.897949,61.871830 140.685272,59.493530 
	C143.405762,55.710678 146.011292,52.087654 148.727463,48.310799 
	C146.104935,44.735882 143.327164,40.949333 140.434280,37.005890 
	C141.962967,37.005890 143.569382,37.005890 145.585373,37.015816 
z"/>
<path fill="#FFC723" opacity="1.000000" stroke="none" 
	d="
M115.941338,49.077827 
	C111.404877,48.962025 113.028511,46.176464 114.103394,43.306805 
	C117.763847,40.519024 120.983429,38.244236 124.203011,35.969452 
	C125.186546,35.975891 126.170082,35.981213 127.153610,35.988960 
	C137.346817,36.069237 140.583893,39.582947 139.113464,49.663506 
	C136.462341,48.111385 134.629654,46.136539 132.369766,45.051144 
	C125.929665,41.958031 121.059502,46.224018 115.941338,49.077827 
z"/>
<path fill="#29682E" opacity="1.000000" stroke="none" 
	d="
M31.974773,42.945534 
	C26.684519,42.663364 25.336712,45.874367 25.049488,49.779793 
	C24.809061,53.048923 25.000128,56.349792 25.000128,59.809769 
	C22.603704,59.809769 20.649466,59.809769 18.345535,59.809769 
	C18.345535,52.361820 18.345535,44.823704 18.345535,37.223537 
	C22.264187,36.132061 26.088003,37.542614 30.204485,36.482342 
	C34.466305,35.384640 32.879002,40.189819 31.974773,42.945534 
z"/>
<path fill="#29682E" opacity="1.000000" stroke="none" 
	d="
M66.034103,36.837082 
	C66.689003,37.726040 67.889587,38.601711 67.911606,39.506073 
	C68.073151,46.143326 67.998795,52.786312 67.998795,59.711967 
	C65.337975,59.711967 62.940868,59.711967 59.522453,59.711967 
	C60.053268,52.110569 60.580345,44.562744 61.939972,36.991547 
	C63.859715,36.924477 64.946907,36.880779 66.034103,36.837082 
z"/>
<path fill="#EE2424" opacity="1.000000" stroke="none" 
	d="
M133.057175,50.070518 
	C133.597031,52.303585 135.260742,55.842632 134.466843,56.525806 
	C132.046600,58.608532 128.723480,60.637825 125.670502,60.766949 
	C120.489868,60.986061 115.454430,59.330772 113.139343,54.136574 
	C115.353165,53.609333 117.121506,53.550484 118.462608,52.763554 
	C123.043755,50.075439 127.790016,48.798676 133.057175,50.070518 
z"/>
<path fill="#A7CE33" opacity="1.000000" stroke="none" 
	d="
M126.844971,24.015263 
	C125.760551,26.058668 124.676132,28.102077 124.007980,29.361095 
	C127.312363,30.449841 131.688599,31.891747 136.064835,33.333652 
	C135.905396,33.613388 135.745956,33.893127 135.586517,34.172863 
	C131.566559,34.172863 127.546593,34.172863 122.883896,34.558598 
	C118.219704,36.681198 114.198242,38.418068 110.176788,40.154938 
	C112.676697,37.339764 115.176598,34.524593 118.109665,31.337097 
	C118.640366,30.303371 119.067657,29.335102 118.783073,29.029276 
	C116.569878,26.650890 114.219528,24.400126 111.948990,21.796806 
	C112.005959,21.274408 112.025520,21.065107 112.045082,20.855806 
	C115.435066,20.558559 117.611473,22.212505 119.127106,25.833279 
	C120.466766,26.550478 121.789948,26.955122 122.816803,26.569889 
	C124.273911,26.023243 125.512817,24.894987 126.844971,24.015263 
z"/>
<path fill="#FE7B22" opacity="1.000000" stroke="none" 
	d="
M133.433060,50.041187 
	C127.790016,48.798676 123.043755,50.075439 118.462608,52.763554 
	C117.121506,53.550484 115.353165,53.609333 113.387589,53.966133 
	C113.918076,52.522488 114.841621,51.114605 115.853256,49.392273 
	C121.059502,46.224018 125.929665,41.958031 132.369766,45.051144 
	C134.629654,46.136539 136.462341,48.111385 138.766571,49.889778 
	C137.298355,50.070267 135.553650,50.041061 133.433060,50.041187 
z"/>
<path fill="#F98223" opacity="1.000000" stroke="none" 
	d="
M110.119492,40.537575 
	C114.198242,38.418068 118.219704,36.681198 122.642624,34.895813 
	C123.351814,35.049091 123.659531,35.250885 124.085129,35.711067 
	C120.983429,38.244236 117.763847,40.519024 114.238274,42.951378 
	C112.642258,42.379368 111.352226,41.649788 110.119492,40.537575 
z"/>
<path fill="#6ABB35" opacity="1.000000" stroke="none" 
	d="
M111.911583,22.109901 
	C114.219528,24.400126 116.569878,26.650890 118.783073,29.029276 
	C119.067657,29.335102 118.640366,30.303371 118.227203,31.024473 
	C112.617462,30.874506 110.562019,27.559547 110.288742,22.427784 
	C111.028877,22.058815 111.470230,22.084358 111.911583,22.109901 
z"/>
<path fill="#D8252E" opacity="1.000000" stroke="none" 
	d="
M66.210518,36.484894 
	C64.946907,36.880779 63.859715,36.924477 62.368851,36.902802 
	C61.965183,35.039387 61.965183,33.241337 61.965183,31.146620 
	C63.220753,31.088627 64.793228,31.015999 67.076454,30.910540 
	C66.823288,32.827923 66.605110,34.480312 66.210518,36.484894 
z"/>
<path fill="#96C933" opacity="1.000000" stroke="none" 
	d="
M126.749580,23.652655 
	C125.512817,24.894987 124.273911,26.023243 122.816803,26.569889 
	C121.789948,26.955122 120.466766,26.550478 119.155663,26.189178 
	C121.575020,25.016586 124.114609,24.153316 126.749580,23.652655 
z"/>
<path fill="#96C933" opacity="1.000000" stroke="none" 
	d="
M111.948990,21.796806 
	C111.470230,22.084358 111.028877,22.058815 110.255699,22.041449 
	C109.671272,21.558113 109.418678,21.066601 109.166077,20.575089 
	C110.018471,20.472597 110.870865,20.370110 111.884171,20.561714 
	C112.025520,21.065107 112.005959,21.274408 111.948990,21.796806 
z"/>
<path fill="#FFFFFF" opacity="1.000000" stroke="none" 
	d="
M105.001663,47.265072 
	C105.237793,51.567123 104.277718,55.024136 100.171570,56.134789 
	C98.524368,56.580341 96.089691,56.018379 94.666527,55.001221 
	C91.475975,52.720879 92.499657,43.079781 95.873734,41.021896 
	C99.880112,38.578362 102.666840,40.357754 105.001663,47.265072 
z"/>
<path fill="#FFFFFF" opacity="1.000000" stroke="none" 
	d="
M172.138672,46.001053 
	C170.391907,46.001053 169.077560,46.001053 167.763199,46.001053 
	C167.444092,45.611763 167.124985,45.222469 166.805862,44.833179 
	C168.823196,43.222260 170.760162,40.496925 172.882629,40.343845 
	C174.664062,40.215366 176.661789,43.085831 178.563736,44.628540 
	C178.306976,45.086044 178.050217,45.543545 177.793457,46.001049 
	C176.052658,46.001049 174.311859,46.001049 172.138672,46.001053 
z"/>
</svg>